<svg width="20" height="20" viewBox="0 0 20 20" fill="none" xmlns="http://www.w3.org/2000/svg">
<path d="M4.16663 4.99996C4.16663 4.77895 4.25442 4.56698 4.4107 4.4107C4.56698 4.25442 4.77895 4.16663 4.99996 4.16663H15C15.221 4.16663 15.4329 4.25442 15.5892 4.4107C15.7455 4.56698 15.8333 4.77895 15.8333 4.99996V15C15.8333 15.221 15.7455 15.4329 15.5892 15.5892C15.4329 15.7455 15.221 15.8333 15 15.8333H4.99996C4.77895 15.8333 4.56698 15.7455 4.4107 15.5892C4.25442 15.4329 4.16663 15.221 4.16663 15V4.99996Z" stroke="black" stroke-opacity="0.65" stroke-width="1.66667" stroke-linecap="round" stroke-linejoin="round"/>
<path d="M2.5 8.33333H4.16667M2.5 11.6667H4.16667M8.33333 2.5V4.16667M11.6667 2.5V4.16667M17.5 8.33333H15.8333M17.5 11.6667H15.8333M11.6667 17.5V15.8333M8.33333 17.5V15.8333M7.5 7.5H12.5V12.5H7.5V7.5Z" stroke="black" stroke-opacity="0.65" stroke-width="1.66667" stroke-linecap="round" stroke-linejoin="round"/>
</svg>
