<svg width="20" height="20" viewBox="0 0 20 20" fill="none" xmlns="http://www.w3.org/2000/svg">
<g clip-path="url(#clip0_36_447)">
<path d="M10 19.2857C15 19.2857 18.5714 17.5171 18.5714 13.5799C18.5714 9.30138 16.4286 6.44852 12.1429 4.30852L13.8286 2.13995C13.9144 1.9977 13.9611 1.83524 13.9637 1.66911C13.9663 1.50299 13.9249 1.33913 13.8436 1.19423C13.7623 1.04934 13.644 0.928581 13.5008 0.844263C13.3577 0.759945 13.1947 0.715078 13.0286 0.714233H6.97145C6.80565 0.715957 6.64324 0.761371 6.5006 0.845893C6.35796 0.930416 6.24013 1.05106 6.15899 1.19565C6.07786 1.34025 6.03629 1.50368 6.03847 1.66947C6.04066 1.83526 6.08653 1.99754 6.17145 2.13995L7.85716 4.3228C3.57145 6.47709 1.42859 9.32995 1.42859 13.6085C1.42859 17.5171 5.00002 19.2857 10 19.2857Z" stroke="black" stroke-opacity="0.65" stroke-width="1.42857" stroke-linecap="round" stroke-linejoin="round"/>
<path d="M11.9758 9.72282C11.8693 9.4207 11.6716 9.15907 11.4101 8.97407C11.1486 8.78906 10.8361 8.68979 10.5158 8.68997H9.31861C8.97751 8.68929 8.64822 8.81484 8.39415 9.04243C8.14007 9.27003 7.97919 9.58358 7.94248 9.9227C7.90576 10.2618 7.99581 10.6025 8.19529 10.8792C8.39476 11.1559 8.68955 11.3491 9.0229 11.4214L10.8472 11.8214C11.2189 11.9043 11.5471 12.1213 11.7689 12.4309C11.9907 12.7405 12.0907 13.1209 12.0497 13.4996C12.0087 13.8782 11.8295 14.2285 11.5466 14.4834C11.2636 14.7383 10.8966 14.88 10.5158 14.8814H9.48576C8.81147 14.8814 8.23861 14.45 8.02576 13.85M10 8.68997V7.14282M10 16.4285V14.8814" stroke="black" stroke-opacity="0.65" stroke-width="1.42857" stroke-linecap="round" stroke-linejoin="round"/>
</g>
<defs>
<clipPath id="clip0_36_447">
<rect width="20" height="20" fill="white"/>
</clipPath>
</defs>
</svg>
