<svg width="20" height="20" viewBox="0 0 20 20" fill="none" xmlns="http://www.w3.org/2000/svg">
<path fill-rule="evenodd" clip-rule="evenodd" d="M8.97746 3.675L2.88996 9.76125C2.65691 9.99436 2.52536 10.3101 2.52396 10.6397C2.52255 10.9693 2.6514 11.2862 2.88246 11.5213L8.34496 17.0837C8.57738 17.3201 8.89415 17.4544 9.22561 17.4573C9.55707 17.4601 9.87607 17.3311 10.1125 17.0987L16.3125 11.0137C16.4904 10.8394 16.6318 10.6313 16.7283 10.4016C16.8249 10.172 16.8748 9.92538 16.875 9.67625V4.375C16.875 4.04348 16.7433 3.72554 16.5088 3.49112C16.2744 3.2567 15.9565 3.125 15.625 3.125H10.3037C10.0574 3.12505 9.81342 3.17365 9.58586 3.26803C9.35829 3.3624 9.15156 3.50069 8.97746 3.675ZM17.6275 12.3525C17.983 12.0034 18.2654 11.5869 18.4581 11.1274C18.6508 10.6679 18.7501 10.1745 18.75 9.67625V4.375C18.75 3.5462 18.4207 2.75134 17.8347 2.16529C17.2486 1.57924 16.4538 1.25 15.625 1.25H10.3037C9.81108 1.24994 9.32327 1.34695 8.86815 1.53547C8.41302 1.724 7.9995 2.00036 7.65121 2.34875L1.56371 8.43625C0.981456 9.01897 0.652832 9.80801 0.64932 10.6318C0.645809 11.4555 0.967695 12.2473 1.54496 12.835L7.00746 18.3975C7.58817 18.9887 8.37991 19.325 9.20855 19.3325C10.0372 19.34 10.8349 19.0181 11.4262 18.4375L17.6275 12.3525ZM12.9775 5.6975C12.5837 5.44222 12.137 5.27979 11.6712 5.2225C11.3025 5.17961 10.9288 5.2215 10.5788 5.34498C10.2287 5.46846 9.91143 5.67026 9.65121 5.935C8.97621 6.61 8.95121 7.4725 9.10496 8.14375C9.25371 8.80125 9.59746 9.43 9.90121 9.90625C10.2187 10.4063 10.4762 10.8213 10.5875 11.1975C10.6787 11.5088 10.6325 11.6375 10.4975 11.7725C10.4075 11.8625 10.27 11.9275 9.97621 11.855C9.65996 11.775 9.26496 11.5463 8.90746 11.1888C8.61104 10.8861 8.40759 10.5048 8.32121 10.09C8.23496 9.67875 8.29246 9.3775 8.36371 9.24C8.42345 9.1306 8.46077 9.01038 8.47349 8.88638C8.48621 8.76239 8.47408 8.6371 8.4378 8.51784C8.40152 8.39859 8.34183 8.28777 8.2622 8.19187C8.18258 8.09596 8.08464 8.0169 7.97409 7.9593C7.86355 7.9017 7.74263 7.86672 7.61841 7.85642C7.49419 7.84611 7.36916 7.86068 7.25064 7.89927C7.13211 7.93786 7.02247 7.9997 6.92813 8.08117C6.8338 8.16264 6.75665 8.26211 6.70121 8.37375C6.37246 9.00625 6.33996 9.78 6.48621 10.4762C6.57371 10.8912 6.73121 11.3138 6.96371 11.7113L6.64746 12.0263C6.4766 12.203 6.382 12.4398 6.38402 12.6856C6.38604 12.9314 6.48452 13.1666 6.65826 13.3405C6.832 13.5144 7.06709 13.6131 7.3129 13.6153C7.55871 13.6176 7.79557 13.5232 7.97246 13.3525L8.24996 13.0763C8.63444 13.3509 9.06561 13.5533 9.52246 13.6738C10.2725 13.8613 11.1487 13.7725 11.8225 13.0988C12.5875 12.3338 12.605 11.4163 12.3862 10.67C12.195 10.0175 11.7962 9.3925 11.5187 8.9575L11.4825 8.9C11.2162 8.4825 11.01 8.07 10.9325 7.72875C10.8575 7.4025 10.93 7.3075 10.9775 7.26125C11.0391 7.19486 11.1158 7.1443 11.2011 7.11384C11.2864 7.08338 11.3777 7.07391 11.4675 7.08625C11.6825 7.11125 12.0237 7.24375 12.4387 7.6575C12.8512 8.07 12.9975 8.4075 13.0412 8.645C13.0822 8.86222 13.0528 9.08683 12.9575 9.28625C12.9018 9.39859 12.8693 9.52094 12.8617 9.64608C12.8542 9.77121 12.8718 9.89659 12.9136 10.0148C12.9554 10.133 13.0204 10.2416 13.1049 10.3342C13.1894 10.4268 13.2916 10.5016 13.4055 10.554C13.5194 10.6064 13.6426 10.6355 13.7679 10.6394C13.8932 10.6434 14.018 10.6222 14.135 10.5771C14.252 10.5319 14.3587 10.4638 14.4488 10.3767C14.539 10.2896 14.6108 10.1853 14.66 10.07C14.885 9.58 15.0112 8.97125 14.8837 8.295C14.7907 7.82903 14.6008 7.38782 14.3262 7L14.6025 6.72375C14.6946 6.63792 14.7684 6.53442 14.8197 6.41942C14.8709 6.30442 14.8985 6.18028 14.9007 6.0544C14.9029 5.92852 14.8798 5.80349 14.8326 5.68675C14.7855 5.57002 14.7153 5.46398 14.6263 5.37495C14.5372 5.28593 14.4312 5.21575 14.3145 5.1686C14.1977 5.12145 14.0727 5.09829 13.9468 5.10051C13.8209 5.10273 13.6968 5.13028 13.5818 5.18152C13.4668 5.23276 13.3633 5.30664 13.2775 5.39875L12.9775 5.6975Z" fill="black" fill-opacity="0.65"/>
</svg>
