<svg width="20" height="20" viewBox="0 0 20 20" fill="none" xmlns="http://www.w3.org/2000/svg">
<path d="M4.99996 12.5H6.66663V7.5H4.99996V12.5ZM9.16663 12.5H10.8333V7.5H9.16663V12.5ZM13.3333 12.5H15V7.5H13.3333V12.5ZM3.33329 14.1667H16.6666V5.83333H3.33329V14.1667ZM4.16663 17.5V15.8333H3.33329C2.87496 15.8333 2.48274 15.6703 2.15663 15.3442C1.83051 15.0181 1.66718 14.6256 1.66663 14.1667V5.83333C1.66663 5.375 1.82996 4.98278 2.15663 4.65667C2.48329 4.33056 2.87551 4.16722 3.33329 4.16667H4.16663V2.5H5.83329V4.16667H9.16663V2.5H10.8333V4.16667H14.1666V2.5H15.8333V4.16667H16.6666C17.125 4.16667 17.5175 4.33 17.8441 4.65667C18.1708 4.98333 18.3338 5.37556 18.3333 5.83333V14.1667C18.3333 14.625 18.1702 15.0175 17.8441 15.3442C17.518 15.6708 17.1255 15.8339 16.6666 15.8333H15.8333V17.5H14.1666V15.8333H10.8333V17.5H9.16663V15.8333H5.83329V17.5H4.16663Z" fill="black" fill-opacity="0.65"/>
</svg>
