<svg width="20" height="20" viewBox="0 0 20 20" fill="none" xmlns="http://www.w3.org/2000/svg">
<g clip-path="url(#clip0_36_568)">
<path fill-rule="evenodd" clip-rule="evenodd" d="M10 16.6667C11.7681 16.6667 13.4638 15.9643 14.714 14.714C15.9643 13.4638 16.6667 11.7681 16.6667 10C16.6667 8.23189 15.9643 6.5362 14.714 5.28595C13.4638 4.03571 11.7681 3.33333 10 3.33333C8.23189 3.33333 6.5362 4.03571 5.28595 5.28595C4.03571 6.5362 3.33333 8.23189 3.33333 10C3.33333 11.7681 4.03571 13.4638 5.28595 14.714C6.5362 15.9643 8.23189 16.6667 10 16.6667ZM10 20C12.6522 20 15.1957 18.9464 17.0711 17.0711C18.9464 15.1957 20 12.6522 20 10C20 7.34783 18.9464 4.8043 17.0711 2.92893C15.1957 1.05357 12.6522 0 10 0C7.34783 0 4.8043 1.05357 2.92893 2.92893C1.05357 4.8043 0 7.34783 0 10C0 12.6522 1.05357 15.1957 2.92893 17.0711C4.8043 18.9464 7.34783 20 10 20Z" fill="black" fill-opacity="0.65"/>
</g>
<defs>
<clipPath id="clip0_36_568">
<rect width="20" height="20" fill="white"/>
</clipPath>
</defs>
</svg>
